<svg xmlns="http://www.w3.org/2000/svg" width="44" height="160" viewBox="0 0 44 160" xmlns:c2pa="http://c2pa.org/manifest"><metadata><c2pa:manifest>AAAWgmp1bWIAAAAeanVtZGMycGEAEQAQgAAAqgA4m3EDYzJwYQAAABZcanVtYgAAAEdqdW1kYzJtYQARABCAAACqADibcQN1cm46YzJwYTpmYTkyOTM0Ny1lYjMwLTQ5ZTEtOWQwMS01ODNkNGIwNTgwMDkAAAADl2p1bWIAAAApanVtZGMyYXMAEQAQgAAAqgA4m3EDYzJwYS5hc3NlcnRpb25zAAAAALxqdW1iAAAARGp1bWRjYm9yABEAEIAAAKoAOJtxE2MycGEuaW5ncmVkaWVudC52MwAAAAAYYzJzaPkFhmocVvSDTF+Y8qvLbYIAAABwY2JvcqNpZGM6Zm9ybWF0bWltYWdlL3N2Zyt4bWxqaW5zdGFuY2VJRHgseG1wOmlpZDo2MzE1YjA2YS1jNmVkLTRiZjQtYTU1ZC0xOGEyNzIxZjJmMTBscmVsYXRpb25zaGlwaHBhcmVudE9mAAAB4mp1bWIAAABBanVtZGNib3IAEQAQgAAAqgA4m3ETYzJwYS5hY3Rpb25zLnYyAAAAABhjMnNo8vK2UF4f3GmPCoPFnyrtWAAAAZljYm9yomdhY3Rpb25zgqJmYWN0aW9ua2MycGEub3BlbmVkanBhcmFtZXRlcnOha2luZ3JlZGllbnRzgaJjdXJseC1zZWxmI2p1bWJmPWMycGEuYXNzZXJ0aW9ucy9jMnBhLmluZ3JlZGllbnQudjNkaGFzaFgg1EBYBUZO5M4YWKqubdFvq/kZAX5g095xW8fhp9XkeSqkZmFjdGlvbngdY29tLmFudGhyb3BpYy5jbGF1ZGUucHJvdmlkZWRqcGFyYW1ldGVyc6F4H2NvbS5hbnRocm9waWMub3JpZ2luLWNvbmZpZGVuY2VndW5rbm93bmtkZXNjcmlwdGlvbnhmQ2xhdWRlIHByb3ZpZGVkIHRoaXMgZmlsZSBhdCB0aGUgcmVxdWVzdCBvZiBhIHVzZXIgYW5kIG1heSBoYXZlIGNyZWF0ZWQgb3IgbW9kaWZpZWQgdGhlIGZpbGUgY29udGVudHMubXNvZnR3YXJlQWdlbnShZG5hbWVmQ2xhdWRlcmFsbEFjdGlvbnNJbmNsdWRlZPUAAADIanVtYgAAAEBqdW1kY2JvcgARABCAAACqADibcRNjMnBhLmhhc2guZGF0YQAAAAAYYzJzaP7fomQVdv5QKMqPrVwnhUcAAACAY2JvcqVjYWxnZnNoYTI1NmNwYWRNAAAAAAAAAAAAAAAAAGRoYXNoWCCH2S6KXSUcaRQlFcf+HxNZuDZVOYdG9F5OZIuIjkwfa2RuYW1lbmp1bWJmIG1hbmlmZXN0amV4Y2x1c2lvbnOBomVzdGFydBiUZmxlbmd0aBkeBAAAAj5qdW1iAAAAJ2p1bWRjMmNsABEAEIAAAKoAOJtxA2MycGEuY2xhaW0udjIAAAACD2Nib3KlY2FsZ2ZzaGEyNTZpc2lnbmF0dXJleE1zZWxmI2p1bWJmPS9jMnBhL3VybjpjMnBhOmZhOTI5MzQ3LWViMzAtNDllMS05ZDAxLTU4M2Q0YjA1ODAwOS9jMnBhLnNpZ25hdHVyZWppbnN0YW5jZUlEeCx4bXA6aWlkOjI3ODlhNDBkLTlmNDItNDU1Mi1iYTIyLTRjYjVkN2FlYmFjMHJjcmVhdGVkX2Fzc2VydGlvbnODomN1cmx4LXNlbGYjanVtYmY9YzJwYS5hc3NlcnRpb25zL2MycGEuaW5ncmVkaWVudC52M2RoYXNoWCDUQFgFRk7kzhhYqq5t0W+r+RkBfmDT3nFbx+Gn1eR5KqJjdXJseCpzZWxmI2p1bWJmPWMycGEuYXNzZXJ0aW9ucy9jMnBhLmFjdGlvbnMudjJkaGFzaFgg+oEruGG2/YXZMQjsPbGKgicjOJIdiIRofx/GZ97MaSaiY3VybHgpc2VsZiNqdW1iZj1jMnBhLmFzc2VydGlvbnMvYzJwYS5oYXNoLmRhdGFkaGFzaFgg24TIyhl0RFcq90reBLUZmezoLsUMtXNX8I/qjI7H6sp0Y2xhaW1fZ2VuZXJhdG9yX2luZm+jZG5hbWVvQW50aHJvcGljIEZpbGVzZ3ZlcnNpb25lMS4wLjBrc3BlY1ZlcnNpb25lMi40LjAAABA4anVtYgAAAChqdW1kYzJjcwARABCAAACqADibcQNjMnBhLnNpZ25hdHVyZQAAABAIY2JvctKEWQISogEmGCFZAgowggIGMIIBjaADAgECAhRA5aAK7sI50L64g/oGQgU9Z1UTADAKBggqhkjOPQQDAzBJMRcwFQYDVQQKEw5BbnRocm9waWMsIFBCQzEuMCwGA1UEAxMlQW50aHJvcGljIENvbnRlbnQgQ3JlZGVudGlhbHMgUm9vdCBDQTAeFw0yNjA4MDcxODQzNTZaFw0yODA4MDYxOTQzNTZaMEQxFzAVBgNVBAoTDkFudGhyb3BpYywgUEJDMSkwJwYDVQQDEyBBbnRocm9waWMgQ2xhdWRlIENvbnRlbnQgU2lnbmluZzBZMBMGByqGSM49AgEGCCqGSM49AwEHA0IABJh6CmvLUBgFFNU0vUKlOVtE6djd17L5SuwX0LemFisBM3dkd/3cyjxFA3Qo5S46fX0/ihY0VZ7mfb9KF703t5OjWDBWMA4GA1UdDwEB/wQEAwIHgDAVBgNVHSUEDjAMBgorBgEEAYPoXgIBMAwGA1UdEwEB/wQCMAAwHwYDVR0jBBgwFoAUzlHiBIFOZFsj+OPEz5o+nMHXXMIwCgYIKoZIzj0EAwMDZwAwZAIwMXMdFJ4BetLLVY7ORuE9noqbbAZOZn/aArXyTwFAZfKrPzxF2vPoJNf1+UCdg1XGAjBwX1zd9WGqYkqmL5SFqw1QySjr1zJfpJM9+1rdDwSPLMOPOjKuiXjoU/pUUeG9RwmhY3BhZFkNngAAAAAAAAAAAAAAAAAAAAAAAAAAAAAAAAAAAAAAAAAAAAAAAAAAAAAAAAAAAAAAAAAAAAAAAAAAAAAAAAAAAAAAAAAAAAAAAAAAAAAAAAAAAAAAAAAAAAAAAAAAAAAAAAAAAAAAAAAAAAAAAAAAAAAAAAAAAAAAAAAAAAAAAAAAAAAAAAAAAAAAAAAAAAAAAAAAAAAAAAAAAAAAAAAAAAAAAAAAAAAAAAAAAAAAAAAAAAAAAAAAAAAAAAAAAAAAAAAAAAAAAAAAAAAAAAAAAAAAAAAAAAAAAAAAAAAAAAAAAAAAAAAAAAAAAAAAAAAAAAAAAAAAAAAAAAAAAAAAAAAAAAAAAAAAAAAAAAAAAAAAAAAAAAAAAAAAAAAAAAAAAAAAAAAAAAAAAAAAAAAAAAAAAAAAAAAAAAAAAAAAAAAAAAAAAAAAAAAAAAAAAAAAAAAAAAAAAAAAAAAAAAAAAAAAAAAAAAAAAAAAAAAAAAAAAAAAAAAAAAAAAAAAAAAAAAAAAAAAAAAAAAAAAAAAAAAAAAAAAAAAAAAAAAAAAAAAAAAAAAAAAAAAAAAAAAAAAAAAAAAAAAAAAAAAAAAAAAAAAAAAAAAAAAAAAAAAAAAAAAAAAAAAAAAAAAAAAAAAAAAAAAAAAAAAAAAAAAAAAAAAAAAAAAAAAAAAAAAAAAAAAAAAAAAAAAAAAAAAAAAAAAAAAAAAAAAAAAAAAAAAAAAAAAAAAAAAAAAAAAAAAAAAAAAAAAAAAAAAAAAAAAAAAAAAAAAAAAAAAAAAAAAAAAAAAAAAAAAAAAAAAAAAAAAAAAAAAAAAAAAAAAAAAAAAAAAAAAAAAAAAAAAAAAAAAAAAAAAAAAAAAAAAAAAAAAAAAAAAAAAAAAAAAAAAAAAAAAAAAAAAAAAAAAAAAAAAAAAAAAAAAAAAAAAAAAAAAAAAAAAAAAAAAAAAAAAAAAAAAAAAAAAAAAAAAAAAAAAAAAAAAAAAAAAAAAAAAAAAAAAAAAAAAAAAAAAAAAAAAAAAAAAAAAAAAAAAAAAAAAAAAAAAAAAAAAAAAAAAAAAAAAAAAAAAAAAAAAAAAAAAAAAAAAAAAAAAAAAAAAAAAAAAAAAAAAAAAAAAAAAAAAAAAAAAAAAAAAAAAAAAAAAAAAAAAAAAAAAAAAAAAAAAAAAAAAAAAAAAAAAAAAAAAAAAAAAAAAAAAAAAAAAAAAAAAAAAAAAAAAAAAAAAAAAAAAAAAAAAAAAAAAAAAAAAAAAAAAAAAAAAAAAAAAAAAAAAAAAAAAAAAAAAAAAAAAAAAAAAAAAAAAAAAAAAAAAAAAAAAAAAAAAAAAAAAAAAAAAAAAAAAAAAAAAAAAAAAAAAAAAAAAAAAAAAAAAAAAAAAAAAAAAAAAAAAAAAAAAAAAAAAAAAAAAAAAAAAAAAAAAAAAAAAAAAAAAAAAAAAAAAAAAAAAAAAAAAAAAAAAAAAAAAAAAAAAAAAAAAAAAAAAAAAAAAAAAAAAAAAAAAAAAAAAAAAAAAAAAAAAAAAAAAAAAAAAAAAAAAAAAAAAAAAAAAAAAAAAAAAAAAAAAAAAAAAAAAAAAAAAAAAAAAAAAAAAAAAAAAAAAAAAAAAAAAAAAAAAAAAAAAAAAAAAAAAAAAAAAAAAAAAAAAAAAAAAAAAAAAAAAAAAAAAAAAAAAAAAAAAAAAAAAAAAAAAAAAAAAAAAAAAAAAAAAAAAAAAAAAAAAAAAAAAAAAAAAAAAAAAAAAAAAAAAAAAAAAAAAAAAAAAAAAAAAAAAAAAAAAAAAAAAAAAAAAAAAAAAAAAAAAAAAAAAAAAAAAAAAAAAAAAAAAAAAAAAAAAAAAAAAAAAAAAAAAAAAAAAAAAAAAAAAAAAAAAAAAAAAAAAAAAAAAAAAAAAAAAAAAAAAAAAAAAAAAAAAAAAAAAAAAAAAAAAAAAAAAAAAAAAAAAAAAAAAAAAAAAAAAAAAAAAAAAAAAAAAAAAAAAAAAAAAAAAAAAAAAAAAAAAAAAAAAAAAAAAAAAAAAAAAAAAAAAAAAAAAAAAAAAAAAAAAAAAAAAAAAAAAAAAAAAAAAAAAAAAAAAAAAAAAAAAAAAAAAAAAAAAAAAAAAAAAAAAAAAAAAAAAAAAAAAAAAAAAAAAAAAAAAAAAAAAAAAAAAAAAAAAAAAAAAAAAAAAAAAAAAAAAAAAAAAAAAAAAAAAAAAAAAAAAAAAAAAAAAAAAAAAAAAAAAAAAAAAAAAAAAAAAAAAAAAAAAAAAAAAAAAAAAAAAAAAAAAAAAAAAAAAAAAAAAAAAAAAAAAAAAAAAAAAAAAAAAAAAAAAAAAAAAAAAAAAAAAAAAAAAAAAAAAAAAAAAAAAAAAAAAAAAAAAAAAAAAAAAAAAAAAAAAAAAAAAAAAAAAAAAAAAAAAAAAAAAAAAAAAAAAAAAAAAAAAAAAAAAAAAAAAAAAAAAAAAAAAAAAAAAAAAAAAAAAAAAAAAAAAAAAAAAAAAAAAAAAAAAAAAAAAAAAAAAAAAAAAAAAAAAAAAAAAAAAAAAAAAAAAAAAAAAAAAAAAAAAAAAAAAAAAAAAAAAAAAAAAAAAAAAAAAAAAAAAAAAAAAAAAAAAAAAAAAAAAAAAAAAAAAAAAAAAAAAAAAAAAAAAAAAAAAAAAAAAAAAAAAAAAAAAAAAAAAAAAAAAAAAAAAAAAAAAAAAAAAAAAAAAAAAAAAAAAAAAAAAAAAAAAAAAAAAAAAAAAAAAAAAAAAAAAAAAAAAAAAAAAAAAAAAAAAAAAAAAAAAAAAAAAAAAAAAAAAAAAAAAAAAAAAAAAAAAAAAAAAAAAAAAAAAAAAAAAAAAAAAAAAAAAAAAAAAAAAAAAAAAAAAAAAAAAAAAAAAAAAAAAAAAAAAAAAAAAAAAAAAAAAAAAAAAAAAAAAAAAAAAAAAAAAAAAAAAAAAAAAAAAAAAAAAAAAAAAAAAAAAAAAAAAAAAAAAAAAAAAAAAAAAAAAAAAAAAAAAAAAAAAAAAAAAAAAAAAAAAAAAAAAAAAAAAAAAAAAAAAAAAAAAAAAAAAAAAAAAAAAAAAAAAAAAAAAAAAAAAAAAAAAAAAAAAAAAAAAAAAAAAAAAAAAAAAAAAAAAAAAAAAAAAAAAAAAAAAAAAAAAAAAAAAAAAAAAAAAAAAAAAAAAAAAAAAAAAAAAAAAAAAAAAAAAAAAAAAAAAAAAAAAAAAAAAAAAAAAAAAAAAAAAAAAAAAAAAAAAAAAAAAAAAAAAAAAAAAAAAAAAAAAAAAAAAAAAAAAAAAAAAAAAAAAAAAAAAAAAAAAAAAAAAAAAAAAAAAAAAAAAAAAAAAAAAAAAAAAAAAAAAAAAAAAAAAAAAAAAAAAAAAAAAAAAAAAAAAAAAAAAAAAAAAAAAAAAAAAAAAAAAAAAAAAAAAAAAAAAAAAAAAAAAAAAAAAAAAAAAAAAAAAAAAAAAAAAAAAAAAAAAAAAAAAAAAAAAAAAAAAAAAAAAAAAAAAAAAAAAAAAAAAAAAAAAAAAAAAAAAAAAAAAAAAAAAAAAAAAAAAAAAAAAAAAAAAAAAAAAAAAAAAAAAAAAAAAAAAAAAAAAAAAAAAAAAAAAAAAAAAAAAAAAAAAAAAAAAAAAAAAAAAAAAAAAAAAAAAAAAAAAAAAAAAAAAAAAAAAAAAAAAAAAAAAAAAAAAAAAAAAAAAAAAAAAAAAAAAAAAAAAAAAAAAAAAAAAAAAAAAAAAAAAAAAAAAAAAAAAAAAAAAAAAAAAAAAAAAAAAAAAAAAAAAAAAAAAAAAAAAAAAAAAAAAAAAAAAAAAAAAAAAAAAAAAAAAAAAAAAAAAAAAAAAAAAAAAAAAAAAAAAAAAAAAAAAAAAAAAAAAAAAAAAAAAAAAAAAAAAAAAAAAAAAAAAAAAAAAAAAAAAAAAAAAAAAAAAAAAAAAAAAAAAAAAAAAAAAAAAAAAAAAAAAAAAAAAAAAAAAAAAAAAAAAAAAAAAAAAAAAAAAAAAAAAAAAAAAAAAAAAAAAAAAAAAAAAAAAAAAAAAAAAAAAAAAAAAAAAAAAAAAAAAAAAAAAAAAAAAAAAAAAAAAAAAAAAAAAAAAAAAAAAAAAAAAAAAAAAAAAAAAAAAAAAAAAAAAAAAAAAAAAAAAAAAAAAAAAAAAAAAAAAAAAAAAAAAAAAAAAAAAAAAAAAAAAAAAAAAAAAAAAAAAAAAAAAAAAAAAAAAAAAAAAAAAAAAAAAAAAAAAAAAAAAAAAAAAAAAAAAAAAAAAAAAAAAAAAAAAAAAAAAAAAAAAAAAAAAAAAAAAAAAAAAAAAAAAAAAAAAAAAAAAAAAAAAAAAAAAAAAAAAAAAAAAAAAAAAAAAAAAAAAAAAAAAAAAAAAAAAAAAAAAAAAAAAAAAAAAAAAAAAAAAAAAAAAAAAAAAAAAAAAAAAAAAAAAAAAAAAAAAAAAAAAAAAAAAAAAAAAAAAAAAAAAAAAAAAAAAAAAAAAAAAAAAAAAAAAAAAAAAAAAAAAAAAAAAAAAAAAAAAAAAAAAAAAAAAAAAAAAAAAAAAAAAAAAAAAAAAAAAAAAAAAAAAAAAAAAAAAAAAAAAAAAAAAAAAAAAAAAAAAAAAAAAAAAAAAAAAAAAAAAAAAAAAAAAAAAAAAAAAAAAAAAAAAAAAAAAAAAAAAAAAAAAAAAAAAAAAAPZYQPmzqIJl6x72/c+ZROIGFC8RH3j1ZhXqJaIP0XOBjzbvIl9ojiTr4v0M6uSvNq/LKZZmLQ3y/+2NN0+RMc5/PXg=</c2pa:manifest></metadata>
<path d="M 22.00,0.00 L 22.78,2.00 L 23.55,4.00 L 24.27,6.00 L 24.94,8.00 L 25.54,10.00 L 26.05,12.00 L 26.46,14.00 L 26.76,16.00 L 26.94,18.00 L 27.00,20.00 L 26.94,22.00 L 26.76,24.00 L 26.46,26.00 L 26.05,28.00 L 25.54,30.00 L 24.94,32.00 L 24.27,34.00 L 23.55,36.00 L 22.78,38.00 L 22.00,40.00 L 21.22,42.00 L 20.45,44.00 L 19.73,46.00 L 19.06,48.00 L 18.46,50.00 L 17.95,52.00 L 17.54,54.00 L 17.24,56.00 L 17.06,58.00 L 17.00,60.00 L 17.06,62.00 L 17.24,64.00 L 17.54,66.00 L 17.95,68.00 L 18.46,70.00 L 19.06,72.00 L 19.73,74.00 L 20.45,76.00 L 21.22,78.00 L 22.00,80.00 L 22.78,82.00 L 23.55,84.00 L 24.27,86.00 L 24.94,88.00 L 25.54,90.00 L 26.05,92.00 L 26.46,94.00 L 26.76,96.00 L 26.94,98.00 L 27.00,100.00 L 26.94,102.00 L 26.76,104.00 L 26.46,106.00 L 26.05,108.00 L 25.54,110.00 L 24.94,112.00 L 24.27,114.00 L 23.55,116.00 L 22.78,118.00 L 22.00,120.00 L 21.22,122.00 L 20.45,124.00 L 19.73,126.00 L 19.06,128.00 L 18.46,130.00 L 17.95,132.00 L 17.54,134.00 L 17.24,136.00 L 17.06,138.00 L 17.00,140.00 L 17.06,142.00 L 17.24,144.00 L 17.54,146.00 L 17.95,148.00 L 18.46,150.00 L 19.06,152.00 L 19.73,154.00 L 20.45,156.00 L 21.22,158.00 L 22.00,160.00" stroke="#8C5F34" stroke-width="15" fill="none" stroke-linecap="round" stroke-linejoin="round" opacity="1"/><path d="M 22.00,0.00 L 22.78,2.00 L 23.55,4.00 L 24.27,6.00 L 24.94,8.00 L 25.54,10.00 L 26.05,12.00 L 26.46,14.00 L 26.76,16.00 L 26.94,18.00 L 27.00,20.00 L 26.94,22.00 L 26.76,24.00 L 26.46,26.00 L 26.05,28.00 L 25.54,30.00 L 24.94,32.00 L 24.27,34.00 L 23.55,36.00 L 22.78,38.00 L 22.00,40.00 L 21.22,42.00 L 20.45,44.00 L 19.73,46.00 L 19.06,48.00 L 18.46,50.00 L 17.95,52.00 L 17.54,54.00 L 17.24,56.00 L 17.06,58.00 L 17.00,60.00 L 17.06,62.00 L 17.24,64.00 L 17.54,66.00 L 17.95,68.00 L 18.46,70.00 L 19.06,72.00 L 19.73,74.00 L 20.45,76.00 L 21.22,78.00 L 22.00,80.00 L 22.78,82.00 L 23.55,84.00 L 24.27,86.00 L 24.94,88.00 L 25.54,90.00 L 26.05,92.00 L 26.46,94.00 L 26.76,96.00 L 26.94,98.00 L 27.00,100.00 L 26.94,102.00 L 26.76,104.00 L 26.46,106.00 L 26.05,108.00 L 25.54,110.00 L 24.94,112.00 L 24.27,114.00 L 23.55,116.00 L 22.78,118.00 L 22.00,120.00 L 21.22,122.00 L 20.45,124.00 L 19.73,126.00 L 19.06,128.00 L 18.46,130.00 L 17.95,132.00 L 17.54,134.00 L 17.24,136.00 L 17.06,138.00 L 17.00,140.00 L 17.06,142.00 L 17.24,144.00 L 17.54,146.00 L 17.95,148.00 L 18.46,150.00 L 19.06,152.00 L 19.73,154.00 L 20.45,156.00 L 21.22,158.00 L 22.00,160.00" stroke="#B37F49" stroke-width="11.5" fill="none" stroke-linecap="round" stroke-linejoin="round" opacity="1"/><ellipse cx="19.18" cy="0.56" rx="2.30" ry="1.38" fill="#6E4A26" opacity="0.34" transform="rotate(11 19.18 0.56)"/><ellipse cx="23.05" cy="10.57" rx="2.56" ry="1.54" fill="#6E4A26" opacity="0.23" transform="rotate(0 23.05 10.57)"/><ellipse cx="24.84" cy="16.11" rx="2.97" ry="1.78" fill="#9C6B39" opacity="0.23" transform="rotate(5 24.84 16.11)"/><ellipse cx="22.83" cy="28.24" rx="3.25" ry="1.95" fill="#9C6B39" opacity="0.25" transform="rotate(-21 22.83 28.24)"/><ellipse cx="21.80" cy="37.83" rx="1.97" ry="1.18" fill="#6E4A26" opacity="0.37" transform="rotate(6 21.80 37.83)"/><ellipse cx="21.12" cy="46.23" rx="2.77" ry="1.66" fill="#9C6B39" opacity="0.26" transform="rotate(3 21.12 46.23)"/><ellipse cx="18.09" cy="55.32" rx="3.35" ry="2.01" fill="#9C6B39" opacity="0.34" transform="rotate(-27 18.09 55.32)"/><ellipse cx="15.71" cy="61.91" rx="1.94" ry="1.17" fill="#6E4A26" opacity="0.20" transform="rotate(-13 15.71 61.91)"/><ellipse cx="18.37" cy="72.54" rx="2.47" ry="1.48" fill="#6E4A26" opacity="0.24" transform="rotate(26 18.37 72.54)"/><ellipse cx="23.32" cy="81.59" rx="2.11" ry="1.26" fill="#9C6B39" opacity="0.22" transform="rotate(-7 23.32 81.59)"/><ellipse cx="26.93" cy="91.96" rx="2.80" ry="1.68" fill="#9C6B39" opacity="0.37" transform="rotate(17 26.93 91.96)"/><ellipse cx="23.94" cy="97.92" rx="2.37" ry="1.42" fill="#6E4A26" opacity="0.23" transform="rotate(27 23.94 97.92)"/><ellipse cx="24.48" cy="109.51" rx="2.98" ry="1.79" fill="#6E4A26" opacity="0.38" transform="rotate(-2 24.48 109.51)"/><ellipse cx="21.90" cy="116.06" rx="2.81" ry="1.69" fill="#6E4A26" opacity="0.31" transform="rotate(24 21.90 116.06)"/><ellipse cx="18.08" cy="125.60" rx="3.60" ry="2.16" fill="#9C6B39" opacity="0.20" transform="rotate(-27 18.08 125.60)"/><ellipse cx="18.47" cy="133.44" rx="3.23" ry="1.94" fill="#9C6B39" opacity="0.19" transform="rotate(-7 18.47 133.44)"/><ellipse cx="17.73" cy="145.98" rx="3.55" ry="2.13" fill="#9C6B39" opacity="0.18" transform="rotate(13 17.73 145.98)"/><ellipse cx="19.87" cy="153.73" rx="2.28" ry="1.37" fill="#9C6B39" opacity="0.20" transform="rotate(-4 19.87 153.73)"/><path d="M 22.00,0.00 L 22.78,2.00 L 23.55,4.00 L 24.27,6.00 L 24.94,8.00 L 25.54,10.00 L 26.05,12.00 L 26.46,14.00 L 26.76,16.00 L 26.94,18.00 L 27.00,20.00 L 26.94,22.00 L 26.76,24.00 L 26.46,26.00 L 26.05,28.00 L 25.54,30.00 L 24.94,32.00 L 24.27,34.00 L 23.55,36.00 L 22.78,38.00 L 22.00,40.00 L 21.22,42.00 L 20.45,44.00 L 19.73,46.00 L 19.06,48.00 L 18.46,50.00 L 17.95,52.00 L 17.54,54.00 L 17.24,56.00 L 17.06,58.00 L 17.00,60.00 L 17.06,62.00 L 17.24,64.00 L 17.54,66.00 L 17.95,68.00 L 18.46,70.00 L 19.06,72.00 L 19.73,74.00 L 20.45,76.00 L 21.22,78.00 L 22.00,80.00 L 22.78,82.00 L 23.55,84.00 L 24.27,86.00 L 24.94,88.00 L 25.54,90.00 L 26.05,92.00 L 26.46,94.00 L 26.76,96.00 L 26.94,98.00 L 27.00,100.00 L 26.94,102.00 L 26.76,104.00 L 26.46,106.00 L 26.05,108.00 L 25.54,110.00 L 24.94,112.00 L 24.27,114.00 L 23.55,116.00 L 22.78,118.00 L 22.00,120.00 L 21.22,122.00 L 20.45,124.00 L 19.73,126.00 L 19.06,128.00 L 18.46,130.00 L 17.95,132.00 L 17.54,134.00 L 17.24,136.00 L 17.06,138.00 L 17.00,140.00 L 17.06,142.00 L 17.24,144.00 L 17.54,146.00 L 17.95,148.00 L 18.46,150.00 L 19.06,152.00 L 19.73,154.00 L 20.45,156.00 L 21.22,158.00 L 22.00,160.00" stroke="#6E4A26" stroke-width="2.2" fill="none" stroke-linecap="round" opacity="0.28"/><path d="M 19.0,3.8 Q 25.0,3.8 28.0,5.6" stroke="#6E4A26" stroke-width="0.6" fill="none" opacity="0.35" stroke-linecap="round"/><path d="M 22.1,25.0 Q 28.3,25.8 31.1,23.7" stroke="#6E4A26" stroke-width="0.6" fill="none" opacity="0.35" stroke-linecap="round"/><path d="M 15.5,45.2 Q 20.5,44.1 24.5,45.7" stroke="#6E4A26" stroke-width="0.6" fill="none" opacity="0.35" stroke-linecap="round"/><path d="M 13.5,68.1 Q 19.1,68.3 22.5,68.2" stroke="#6E4A26" stroke-width="0.6" fill="none" opacity="0.35" stroke-linecap="round"/><path d="M 19.8,86.0 Q 22.3,87.4 28.8,85.3" stroke="#6E4A26" stroke-width="0.6" fill="none" opacity="0.35" stroke-linecap="round"/><path d="M 20.9,110.5 Q 24.6,109.4 29.9,111.8" stroke="#6E4A26" stroke-width="0.6" fill="none" opacity="0.35" stroke-linecap="round"/><path d="M 13.6,131.5 Q 16.4,132.3 22.6,133.3" stroke="#6E4A26" stroke-width="0.6" fill="none" opacity="0.35" stroke-linecap="round"/><path d="M 13.8,149.3 Q 19.3,148.3 22.8,150.3" stroke="#6E4A26" stroke-width="0.6" fill="none" opacity="0.35" stroke-linecap="round"/><path d="M 21.16,3.13 L 19.94,4.11 L 18.24,3.86 L 17.56,2.77 L 18.58,1.67 L 19.76,1.88 Z" fill="#8a7660" stroke="#6E4A26" stroke-width="0.5" opacity="0.9"/><path d="M 22.60,17.16 L 22.31,17.79 L 21.77,17.72 L 21.09,17.34 L 20.82,16.90 L 21.64,16.48 L 22.52,16.60 Z" fill="#8a7660" stroke="#6E4A26" stroke-width="0.5" opacity="0.9"/><path d="M 19.88,35.13 L 19.19,36.12 L 18.14,35.96 L 17.17,35.21 L 17.93,34.49 L 19.12,34.37 Z" fill="#8a7660" stroke="#6E4A26" stroke-width="0.5" opacity="0.9"/><path d="M 12.74,52.55 L 12.21,53.12 L 11.68,53.45 L 10.97,53.03 L 10.76,52.32 L 11.69,52.06 L 12.16,52.07 Z" fill="#8a7660" stroke="#6E4A26" stroke-width="0.5" opacity="0.9"/><path d="M 25.12,73.79 L 24.31,74.39 L 23.31,74.92 L 22.14,74.04 L 22.49,73.06 L 23.28,72.42 L 24.55,72.87 Z" fill="#8a7660" stroke="#6E4A26" stroke-width="0.5" opacity="0.9"/><path d="M 20.60,90.81 L 20.25,91.49 L 19.03,91.25 L 19.05,90.34 L 20.09,90.10 Z" fill="#8a7660" stroke="#6E4A26" stroke-width="0.5" opacity="0.9"/><path d="M 22.05,107.57 L 21.41,108.28 L 20.22,108.20 L 19.38,107.63 L 20.48,106.91 L 21.21,106.87 Z" fill="#8a7660" stroke="#6E4A26" stroke-width="0.5" opacity="0.9"/><path d="M 15.41,124.58 L 14.72,125.62 L 13.07,125.05 L 13.19,124.00 L 14.64,123.91 Z" fill="#8a7660" stroke="#6E4A26" stroke-width="0.5" opacity="0.9"/><path d="M 21.31,141.18 L 21.08,141.75 L 20.10,142.07 L 19.63,141.55 L 19.77,140.92 L 20.24,140.45 L 20.86,140.66 Z" fill="#8a7660" stroke="#6E4A26" stroke-width="0.5" opacity="0.9"/><path d="M 24.27,153.76 L 24.34,154.53 L 22.72,154.70 L 21.94,154.10 L 22.17,153.53 L 22.77,152.70 L 24.28,153.00 Z" fill="#8a7660" stroke="#6E4A26" stroke-width="0.5" opacity="0.9"/><circle cx="21.12" cy="4.49" r="0.40" fill="#6E4A26" opacity="0.17"/><circle cx="28.97" cy="9.90" r="0.46" fill="#6E4A26" opacity="0.27"/><circle cx="30.08" cy="12.77" r="0.65" fill="#6E4A26" opacity="0.35"/><circle cx="30.37" cy="22.05" r="0.31" fill="#6E4A26" opacity="0.30"/><circle cx="30.39" cy="25.66" r="0.62" fill="#6E4A26" opacity="0.32"/><circle cx="22.15" cy="34.05" r="0.61" fill="#6E4A26" opacity="0.17"/><circle cx="25.09" cy="40.36" r="0.39" fill="#6E4A26" opacity="0.31"/><circle cx="18.59" cy="44.30" r="0.62" fill="#6E4A26" opacity="0.20"/><circle cx="16.26" cy="48.12" r="0.43" fill="#6E4A26" opacity="0.32"/><circle cx="15.03" cy="58.83" r="0.56" fill="#6E4A26" opacity="0.23"/><circle cx="17.69" cy="64.91" r="0.68" fill="#6E4A26" opacity="0.17"/><circle cx="15.82" cy="70.85" r="0.69" fill="#6E4A26" opacity="0.20"/><circle cx="18.65" cy="72.54" r="0.59" fill="#6E4A26" opacity="0.21"/><circle cx="22.51" cy="81.03" r="0.45" fill="#6E4A26" opacity="0.27"/><circle cx="25.89" cy="85.27" r="0.30" fill="#6E4A26" opacity="0.34"/><circle cx="28.17" cy="92.69" r="0.60" fill="#6E4A26" opacity="0.28"/><circle cx="23.06" cy="97.82" r="0.57" fill="#6E4A26" opacity="0.22"/><circle cx="29.94" cy="103.57" r="0.59" fill="#6E4A26" opacity="0.21"/><circle cx="24.83" cy="109.55" r="0.46" fill="#6E4A26" opacity="0.21"/><circle cx="23.33" cy="114.64" r="0.68" fill="#6E4A26" opacity="0.29"/><circle cx="21.30" cy="124.51" r="0.42" fill="#6E4A26" opacity="0.26"/><circle cx="17.81" cy="126.00" r="0.47" fill="#6E4A26" opacity="0.27"/><circle cx="17.03" cy="135.27" r="0.48" fill="#6E4A26" opacity="0.19"/><circle cx="20.61" cy="140.37" r="0.62" fill="#6E4A26" opacity="0.18"/><circle cx="17.44" cy="144.42" r="0.55" fill="#6E4A26" opacity="0.22"/><circle cx="22.02" cy="154.09" r="0.57" fill="#6E4A26" opacity="0.19"/><circle cx="16.55" cy="157.00" r="0.40" fill="#6E4A26" opacity="0.25"/>
<path d="M 23.38,14.62 Q 22.89,8.40 22.25,3.31 Q 23.94,8.40 25.13,14.62 Z" fill="#2C7A32"/><path d="M 21.21,15.13 Q 20.47,8.44 19.61,2.96 Q 21.56,8.44 23.02,15.13 Z" fill="#3F9C3F"/><path d="M 19.49,14.81 Q 19.24,9.43 18.80,5.02 Q 20.27,9.43 21.22,14.81 Z" fill="#63C15A"/><path d="M 16.47,14.44 Q 15.91,8.84 15.13,4.25 Q 17.32,8.84 18.83,14.44 Z" fill="#2C7A32"/><path d="M 15.10,15.00 Q 15.11,8.21 14.83,2.65 Q 16.33,8.21 17.14,15.00 Z" fill="#3F9C3F"/><path d="M 28.19,14.90 Q 30.05,8.28 31.28,2.86 Q 31.30,8.28 30.27,14.90 Z" fill="#2C7A32"/><path d="M 29.63,14.40 Q 31.19,8.20 32.13,3.12 Q 32.69,8.20 32.12,14.40 Z" fill="#3F9C3F"/><path d="M 31.58,13.94 Q 32.77,8.82 33.47,4.64 Q 33.98,8.82 33.59,13.94 Z" fill="#63C15A"/><path d="M 33.60,14.44 Q 35.89,10.39 37.44,7.07 Q 37.31,10.39 35.97,14.44 Z" fill="#2C7A32"/><path d="M 36.15,13.73 Q 38.27,6.97 39.66,1.44 Q 39.80,6.97 38.70,13.73 Z" fill="#3F9C3F"/><path d="M 16.78,44.46 Q 15.79,37.97 14.73,32.66 Q 16.92,37.97 18.66,44.46 Z" fill="#2C7A32"/><path d="M 14.54,43.90 Q 14.07,37.85 13.36,32.89 Q 15.54,37.85 16.98,43.90 Z" fill="#3F9C3F"/><path d="M 13.25,44.85 Q 12.47,39.24 11.53,34.65 Q 13.83,39.24 15.51,44.85 Z" fill="#63C15A"/><path d="M 10.51,43.97 Q 10.21,37.26 9.69,31.77 Q 11.36,37.26 12.44,43.97 Z" fill="#2C7A32"/><path d="M 9.01,43.82 Q 9.23,37.07 9.13,31.54 Q 10.44,37.07 11.03,43.82 Z" fill="#3F9C3F"/><path d="M 21.85,75.03 Q 22.68,68.03 23.11,62.29 Q 23.79,68.03 23.70,75.03 Z" fill="#2C7A32"/><path d="M 24.14,75.92 Q 25.81,71.28 26.83,67.49 Q 27.34,71.28 26.68,75.92 Z" fill="#3F9C3F"/><path d="M 25.70,75.33 Q 28.20,70.27 29.94,66.12 Q 29.59,70.27 28.02,75.33 Z" fill="#63C15A"/><path d="M 28.05,75.19 Q 30.44,70.31 32.10,66.32 Q 31.74,70.31 30.22,75.19 Z" fill="#2C7A32"/><path d="M 29.98,75.52 Q 31.70,68.57 32.78,62.88 Q 33.16,68.57 32.41,75.52 Z" fill="#3F9C3F"/><path d="M 27.58,104.03 Q 29.65,96.94 31.07,91.13 Q 30.87,96.94 29.61,104.03 Z" fill="#2C7A32"/><path d="M 29.36,104.65 Q 31.82,99.67 33.60,95.60 Q 32.85,99.67 31.07,104.65 Z" fill="#3F9C3F"/><path d="M 31.66,104.86 Q 33.82,98.27 35.28,92.88 Q 35.22,98.27 33.99,104.86 Z" fill="#63C15A"/><path d="M 33.71,104.27 Q 35.61,97.75 36.89,92.42 Q 36.83,97.75 35.75,104.27 Z" fill="#2C7A32"/><path d="M 35.11,104.27 Q 37.17,97.61 38.52,92.16 Q 38.66,97.61 37.59,104.27 Z" fill="#3F9C3F"/><path d="M 36.44,104.58 Q 37.89,98.72 38.74,93.92 Q 39.36,98.72 38.89,104.58 Z" fill="#63C15A"/><path d="M 13.56,133.43 Q 13.13,127.27 12.44,122.22 Q 14.66,127.27 16.11,133.43 Z" fill="#2C7A32"/><path d="M 11.50,133.17 Q 10.99,127.71 10.26,123.24 Q 12.34,127.71 13.75,133.17 Z" fill="#3F9C3F"/><path d="M 10.26,133.29 Q 10.28,129.13 10.03,125.73 Q 11.42,129.13 12.17,133.29 Z" fill="#63C15A"/><path d="M 8.46,132.78 Q 8.28,127.18 7.88,122.59 Q 9.44,127.18 10.39,132.78 Z" fill="#2C7A32"/><path d="M 6.81,132.45 Q 6.44,127.77 5.91,123.95 Q 7.47,127.77 8.53,132.45 Z" fill="#3F9C3F"/>
</svg>